<?xml version="1.0" standalone="no"?>
<!DOCTYPE svg PUBLIC "-//W3C//DTD SVG 20010904//EN"
 "http://www.w3.org/TR/2001/REC-SVG-20010904/DTD/svg10.dtd">
<svg version="1.0" xmlns="http://www.w3.org/2000/svg"
 width="288.000000pt" height="288.000000pt" viewBox="0 0 288.000000 288.000000"
 preserveAspectRatio="xMidYMid meet">
<metadata>
Created by potrace 1.11, written by Peter Selinger 2001-2013
</metadata>
<g transform="translate(0.000000,288.000000) scale(0.100000,-0.100000)"
fill="#000000" stroke="none">
<path d="M661 2063 c-5 -21 -18 -90 -29 -153 -46 -262 -75 -420 -93 -510 -10
-52 -22 -114 -25 -137 l-7 -43 67 0 c62 0 66 1 72 26 l7 26 21 -24 c12 -12 31
-29 43 -36 27 -14 163 -16 163 -2 0 6 7 10 15 10 33 0 98 71 135 145 75 154
81 361 13 433 -7 7 -13 16 -13 20 0 13 -55 32 -93 32 -46 0 -117 -19 -117 -32
0 -4 -5 -8 -11 -8 -7 0 -18 -8 -26 -17 -13 -16 -14 -12 -8 37 4 30 11 80 17
110 5 30 12 79 15 108 l5 52 -71 0 -70 0 -10 -37z m240 -362 c22 -18 24 -25
22 -112 -1 -51 -7 -97 -13 -103 -5 -5 -10 -23 -10 -38 0 -15 -4 -28 -10 -28
-5 0 -10 -6 -10 -13 0 -15 -31 -44 -69 -65 -20 -12 -28 -12 -50 -1 -53 28 -63
48 -56 114 4 33 10 65 14 70 4 6 13 28 20 50 17 49 63 110 99 129 36 19 36 19
63 -3z"/>
<path d="M1883 2058 c-6 -24 -21 -99 -33 -168 -12 -69 -32 -181 -45 -250 -36
-197 -65 -363 -68 -390 -2 -24 0 -25 70 -28 l72 -3 9 38 c15 61 42 210 42 232
0 12 4 21 8 21 11 0 32 -46 32 -70 0 -11 5 -20 10 -20 6 0 10 -7 10 -16 0 -9
6 -28 14 -42 8 -15 24 -53 36 -84 l22 -58 74 0 c112 0 112 -5 -17 279 l-30 64
66 66 c117 120 156 165 153 181 -3 11 -20 16 -76 18 l-73 3 -40 -43 c-22 -24
-55 -61 -72 -82 -54 -67 -97 -111 -97 -100 0 5 4 14 9 20 5 5 12 34 15 64 9
96 17 144 26 165 10 23 17 71 26 173 l7 72 -70 0 -69 0 -11 -42z"/>
<path d="M1473 2035 c-69 -38 -199 -129 -205 -143 -4 -9 -7 -36 -7 -59 -1 -55
14 -56 99 -8 34 19 63 35 64 35 1 0 -6 -39 -16 -87 -10 -49 -25 -133 -34 -188
-8 -55 -19 -113 -24 -129 -6 -16 -10 -43 -10 -60 0 -52 -10 -58 -88 -54 l-71
3 -15 -33 c-9 -18 -16 -46 -16 -62 l0 -30 228 0 229 0 12 38 c7 21 11 49 9 62
-3 22 -6 23 -70 21 l-68 -2 6 33 c9 57 55 309 74 408 30 155 43 250 36 257
-10 11 -112 9 -133 -2z"/>
</g>
</svg>
